<svg width="154" height="77" viewBox="0 0 154 77" fill="none" xmlns="http://www.w3.org/2000/svg">
<path d="M51.488 39.768L53.12 36.024C58.688 36.152 63.264 37.016 66.848 38.616C70.496 40.152 73.216 42.328 75.008 45.144C76.8 47.896 77.696 51.096 77.696 54.744C77.696 58.648 76.8 62.136 75.008 65.208C73.216 68.216 70.528 70.616 66.944 72.408C63.424 74.136 59.008 75 53.696 75H0.512L6.08 38.04L0.512 2.99999H51.776C58.432 2.99999 63.616 4.568 67.328 7.704C71.04 10.776 72.896 15.064 72.896 20.568C72.896 23.576 72.192 26.456 70.784 29.208C69.376 31.96 67.104 34.296 63.968 36.216C60.896 38.072 56.736 39.256 51.488 39.768ZM20.192 70.392L12.512 61.08H48.32C51.2 61.08 53.44 60.376 55.04 58.968C56.64 57.56 57.44 55.608 57.44 53.112C57.44 50.616 56.576 48.632 54.848 47.16C53.12 45.624 50.56 44.856 47.168 44.856H17.6V31.224H44.48C46.784 31.224 48.704 30.552 50.24 29.208C51.84 27.8 52.64 25.912 52.64 23.544C52.64 21.624 51.968 20.056 50.624 18.84C49.28 17.56 47.36 16.92 44.864 16.92H12.608L20.192 7.608L25.088 38.04L20.192 70.392ZM118.485 76.536C111.445 76.536 105.301 75.352 100.053 72.984C94.8048 70.552 90.7088 67.16 87.7648 62.808C84.8208 58.392 83.3488 53.336 83.3488 47.64C83.3488 41.816 84.8208 36.728 87.7648 32.376C90.7088 28.024 94.8048 24.632 100.053 22.2C105.301 19.768 111.445 18.552 118.485 18.552C125.461 18.552 131.573 19.768 136.821 22.2C142.133 24.632 146.261 28.024 149.205 32.376C152.149 36.728 153.621 41.816 153.621 47.64C153.621 53.336 152.149 58.392 149.205 62.808C146.261 67.16 142.133 70.552 136.821 72.984C131.573 75.352 125.461 76.536 118.485 76.536ZM118.485 62.04C121.685 62.04 124.405 61.464 126.645 60.312C128.949 59.16 130.709 57.496 131.925 55.32C133.141 53.144 133.749 50.584 133.749 47.64C133.749 44.568 133.141 41.976 131.925 39.864C130.709 37.688 128.949 36.024 126.645 34.872C124.405 33.72 121.685 33.144 118.485 33.144C115.285 33.144 112.533 33.72 110.229 34.872C107.925 36.024 106.165 37.688 104.949 39.864C103.733 41.976 103.125 44.536 103.125 47.544C103.125 50.552 103.733 53.144 104.949 55.32C106.165 57.496 107.925 59.16 110.229 60.312C112.533 61.464 115.285 62.04 118.485 62.04ZM95.0608 12.408V0.695995H141.813V12.408H95.0608Z" fill="white"/>
</svg>
